<mxfile host="app.diagrams.net" modified="2024-03-25T03:33:49.300Z" agent="Mozilla/5.0 (Windows NT 10.0; Win64; x64) AppleWebKit/537.36 (KHTML, like Gecko) Chrome/123.0.0.0 Safari/537.36" version="24.1.0" etag="hswxb5QxULfwIUnDq6xc" type="github">
  <diagram name="Trang-1" id="f-HtM7Zo1jaQVKKLrQIA">
    <mxGraphModel>
      <root>
        <mxCell id="0" />
        <mxCell id="1" parent="0" />
      </root>
    </mxGraphModel>
  </diagram>
</mxfile>
